<svg width="171" height="46" viewBox="0 0 171 46" fill="none" xmlns="http://www.w3.org/2000/svg">
<rect x="0.5" y="-0.000488281" width="170" height="46" rx="7" fill="#2B6CB0"/>
<rect x="4.5" y="3.99951" width="37" height="38" rx="5" fill="#F8F9FA"/>
<rect x="11.8808" y="11.8804" width="22.2383" height="22.2383" rx="11.1192" fill="#2B6CB0"/>
<path d="M19.464 22.9995C19.464 23.989 18.6619 24.7911 17.6724 24.7911C16.683 24.7911 15.8808 23.989 15.8808 22.9995C15.8808 22.0101 16.683 21.2079 17.6724 21.2079C18.6619 21.2079 19.464 22.0101 19.464 22.9995Z" fill="#F8F9FA"/>
<path d="M24.7916 22.9995C24.7916 23.989 23.9895 24.7911 23 24.7911C22.0105 24.7911 21.2084 23.989 21.2084 22.9995C21.2084 22.0101 22.0105 21.2079 23 21.2079C23.9895 21.2079 24.7916 22.0101 24.7916 22.9995Z" fill="#F8F9FA"/>
<path d="M30.1191 22.9995C30.1191 23.989 29.317 24.7911 28.3276 24.7911C27.3381 24.7911 26.536 23.989 26.536 22.9995C26.536 22.0101 27.3381 21.2079 28.3276 21.2079C29.317 21.2079 30.1191 22.0101 30.1191 22.9995Z" fill="#F8F9FA"/>
<path d="M34.1191 34.1187L28.3918 32.5841L32.5845 28.3914L34.1191 34.1187Z" fill="#2B6CB0"/>
<path d="M51.6211 25.4995V11.2222H54.6484V22.9995H60.4395V25.4995H51.6211ZM71.1523 25.4995H62.9297V11.2222H71.1523V13.7026H65.957V16.8374H70.791V19.3179H65.957V22.9995H71.1523V25.4995ZM79.6484 25.4995H76.6211V13.7417H72.7441V11.2222H83.5254V13.7417H79.6484V25.4995ZM87.8906 11.2222L88.0273 11.437C87.9102 11.9123 87.7572 12.4201 87.5684 12.9604C87.3861 13.4943 87.1842 14.0314 86.9629 14.5718C86.748 15.1121 86.5299 15.6265 86.3086 16.1147H84.1699C84.2611 15.7241 84.3522 15.314 84.4434 14.8843C84.541 14.4546 84.6322 14.0249 84.7168 13.5952C84.8079 13.1655 84.8893 12.7489 84.9609 12.3452C85.0326 11.9416 85.0944 11.5672 85.1465 11.2222H87.8906ZM98.4863 21.5347C98.4863 22.381 98.2812 23.1167 97.8711 23.7417C97.4609 24.3667 96.862 24.8485 96.0742 25.187C95.293 25.5256 94.3424 25.6948 93.2227 25.6948C92.7279 25.6948 92.2428 25.6623 91.7676 25.5972C91.2988 25.5321 90.8464 25.4377 90.4102 25.314C89.9805 25.1838 89.5703 25.0243 89.1797 24.8354V22.0229C89.8568 22.3224 90.5599 22.5926 91.2891 22.8335C92.0182 23.0744 92.7409 23.1948 93.457 23.1948C93.9518 23.1948 94.349 23.1297 94.6484 22.9995C94.9544 22.8693 95.1758 22.6903 95.3125 22.4624C95.4492 22.2345 95.5176 21.9741 95.5176 21.6812C95.5176 21.3231 95.3971 21.0171 95.1562 20.7632C94.9154 20.5093 94.5833 20.2716 94.1602 20.0503C93.7435 19.8289 93.2715 19.5913 92.7441 19.3374C92.4121 19.1812 92.0508 18.9924 91.6602 18.771C91.2695 18.5431 90.8984 18.2664 90.5469 17.9409C90.1953 17.6154 89.9056 17.2215 89.6777 16.7593C89.4564 16.2905 89.3457 15.7306 89.3457 15.0796C89.3457 14.2267 89.541 13.4976 89.9316 12.8921C90.3223 12.2866 90.8789 11.8244 91.6016 11.5054C92.3307 11.1799 93.1901 11.0171 94.1797 11.0171C94.9219 11.0171 95.6283 11.105 96.2988 11.2808C96.9759 11.45 97.6823 11.6974 98.418 12.0229L97.4414 14.3765C96.7839 14.1095 96.1947 13.9045 95.6738 13.7612C95.153 13.6115 94.6224 13.5366 94.082 13.5366C93.7044 13.5366 93.3822 13.5985 93.1152 13.7222C92.8483 13.8394 92.6465 14.0086 92.5098 14.23C92.373 14.4448 92.3047 14.6955 92.3047 14.9819C92.3047 15.3205 92.4023 15.6069 92.5977 15.8413C92.7995 16.0692 93.099 16.2905 93.4961 16.5054C93.8997 16.7202 94.401 16.9709 95 17.2573C95.7292 17.6024 96.3509 17.9637 96.8652 18.3413C97.3861 18.7124 97.7865 19.1519 98.0664 19.6597C98.3464 20.161 98.4863 20.786 98.4863 21.5347ZM111.777 25.4995H108.75V13.7417H104.873V11.2222H115.654V13.7417H111.777V25.4995ZM126.592 25.4995L125.557 22.1011H120.352L119.316 25.4995H116.055L121.094 11.1636H124.795L129.854 25.4995H126.592ZM124.834 19.562L123.799 16.2417C123.734 16.0203 123.646 15.7371 123.535 15.3921C123.431 15.0405 123.324 14.6857 123.213 14.3276C123.109 13.9631 123.024 13.6473 122.959 13.3804C122.894 13.6473 122.803 13.9793 122.686 14.3765C122.575 14.7671 122.467 15.1382 122.363 15.4897C122.259 15.8413 122.184 16.092 122.139 16.2417L121.113 19.562H124.834ZM131.66 25.4995V11.2222H134.688V22.9995H140.479V25.4995H131.66ZM154.453 25.4995H151.016L147.275 19.4839L145.996 20.4019V25.4995H142.969V11.2222H145.996V17.7554C146.198 17.4754 146.396 17.1955 146.592 16.9155C146.787 16.6356 146.986 16.3556 147.188 16.0757L151.055 11.2222H154.414L149.434 17.5405L154.453 25.4995ZM158.516 20.7632H156.133L155.635 11.2222H159.014L158.516 20.7632ZM155.596 24.103C155.596 23.491 155.762 23.0614 156.094 22.814C156.432 22.5666 156.839 22.4429 157.314 22.4429C157.777 22.4429 158.174 22.5666 158.506 22.814C158.844 23.0614 159.014 23.491 159.014 24.103C159.014 24.689 158.844 25.1121 158.506 25.3726C158.174 25.633 157.777 25.7632 157.314 25.7632C156.839 25.7632 156.432 25.633 156.094 25.3726C155.762 25.1121 155.596 24.689 155.596 24.103Z" fill="#F8F9FA"/>
<path d="M53.6406 34.9448C53.6406 35.2834 53.5573 35.575 53.3906 35.8198C53.2266 36.0646 52.9896 36.2521 52.6797 36.3823C52.3724 36.5125 52.0052 36.5776 51.5781 36.5776C51.3698 36.5776 51.1706 36.5659 50.9805 36.5425C50.7904 36.519 50.6107 36.4852 50.4414 36.4409C50.2747 36.394 50.1224 36.3381 49.9844 36.2729V35.3901C50.2161 35.4917 50.4753 35.5841 50.7617 35.6675C51.0482 35.7482 51.3398 35.7886 51.6367 35.7886C51.8789 35.7886 52.0794 35.7573 52.2383 35.6948C52.3997 35.6297 52.5195 35.5386 52.5977 35.4214C52.6758 35.3016 52.7148 35.1623 52.7148 35.0034C52.7148 34.8341 52.6693 34.6909 52.5781 34.5737C52.487 34.4565 52.349 34.3498 52.1641 34.2534C51.9818 34.1545 51.7526 34.049 51.4766 33.937C51.2891 33.8615 51.1094 33.7756 50.9375 33.6792C50.7682 33.5828 50.6172 33.4696 50.4844 33.3394C50.3516 33.2091 50.2461 33.0555 50.168 32.8784C50.0924 32.6987 50.0547 32.4878 50.0547 32.2456C50.0547 31.9227 50.1315 31.6466 50.2852 31.4175C50.4414 31.1883 50.6602 31.0125 50.9414 30.8901C51.2253 30.7677 51.556 30.7065 51.9336 30.7065C52.2331 30.7065 52.5143 30.7378 52.7773 30.8003C53.043 30.8628 53.3034 30.9513 53.5586 31.0659L53.2617 31.8198C53.0273 31.7235 52.7995 31.6466 52.5781 31.5894C52.3594 31.5321 52.1354 31.5034 51.9062 31.5034C51.7083 31.5034 51.5404 31.5334 51.4023 31.5933C51.2643 31.6532 51.1589 31.7378 51.0859 31.8472C51.0156 31.9539 50.9805 32.0815 50.9805 32.23C50.9805 32.3966 51.0208 32.5373 51.1016 32.6519C51.1849 32.7638 51.3125 32.8667 51.4844 32.9604C51.6589 33.0542 51.8828 33.1584 52.1562 33.2729C52.4714 33.4032 52.7383 33.5399 52.957 33.6831C53.1784 33.8263 53.3477 33.9982 53.4648 34.1987C53.582 34.3966 53.6406 34.6453 53.6406 34.9448ZM56.8672 32.0933C57.3802 32.0933 57.7917 32.2808 58.1016 32.6558C58.4141 33.0308 58.5703 33.5881 58.5703 34.3276C58.5703 34.8172 58.4974 35.23 58.3516 35.5659C58.2083 35.8993 58.0065 36.1519 57.7461 36.3237C57.4883 36.493 57.1875 36.5776 56.8438 36.5776C56.625 36.5776 56.4349 36.549 56.2734 36.4917C56.112 36.4344 55.974 36.3602 55.8594 36.269C55.7448 36.1753 55.6484 36.0737 55.5703 35.9644H55.5156C55.5286 36.0685 55.5404 36.1844 55.5508 36.312C55.5638 36.437 55.5703 36.5516 55.5703 36.6558V38.4175H54.6484V32.1753H55.3984L55.5273 32.7729H55.5703C55.651 32.6506 55.7487 32.5373 55.8633 32.4331C55.9805 32.3289 56.1211 32.2469 56.2852 32.187C56.4518 32.1245 56.6458 32.0933 56.8672 32.0933ZM56.6211 32.8433C56.3685 32.8433 56.1654 32.894 56.0117 32.9956C55.8607 33.0946 55.75 33.2443 55.6797 33.4448C55.612 33.6453 55.5755 33.8966 55.5703 34.1987V34.3276C55.5703 34.6479 55.6029 34.9201 55.668 35.144C55.7357 35.3654 55.8464 35.5347 56 35.6519C56.1562 35.7664 56.3672 35.8237 56.6328 35.8237C56.8568 35.8237 57.0417 35.7625 57.1875 35.6401C57.3359 35.5177 57.4466 35.3433 57.5195 35.1167C57.5924 34.8901 57.6289 34.6232 57.6289 34.3159C57.6289 33.8498 57.5456 33.4878 57.3789 33.23C57.2148 32.9722 56.9622 32.8433 56.6211 32.8433ZM61.3555 32.0933C61.7409 32.0933 62.0716 32.1727 62.3477 32.3315C62.6237 32.4904 62.8359 32.7157 62.9844 33.0073C63.1328 33.299 63.207 33.6479 63.207 34.0542V34.5464H60.3203C60.3307 34.9657 60.4427 35.2886 60.6562 35.5151C60.8724 35.7417 61.1745 35.855 61.5625 35.855C61.8385 35.855 62.0859 35.8289 62.3047 35.7769C62.526 35.7222 62.7539 35.6427 62.9883 35.5386V36.2847C62.7721 36.3862 62.5521 36.4604 62.3281 36.5073C62.1042 36.5542 61.8359 36.5776 61.5234 36.5776C61.099 36.5776 60.7253 36.4956 60.4023 36.3315C60.082 36.1649 59.8307 35.9175 59.6484 35.5894C59.4688 35.2612 59.3789 34.8537 59.3789 34.3667C59.3789 33.8823 59.4609 33.4709 59.625 33.1323C59.7891 32.7938 60.0195 32.536 60.3164 32.3589C60.6133 32.1818 60.9596 32.0933 61.3555 32.0933ZM61.3555 32.7847C61.0664 32.7847 60.832 32.8784 60.6523 33.0659C60.4753 33.2534 60.3711 33.5282 60.3398 33.8901H62.3086C62.306 33.674 62.2695 33.4826 62.1992 33.3159C62.1315 33.1493 62.0273 33.019 61.8867 32.9253C61.7487 32.8315 61.5716 32.7847 61.3555 32.7847ZM65.9375 32.0933C66.4844 32.0933 66.8971 32.2144 67.1758 32.4565C67.457 32.6987 67.5977 33.0763 67.5977 33.5894V36.4995H66.9453L66.7695 35.8862H66.7383C66.6159 36.0425 66.4896 36.1714 66.3594 36.2729C66.2292 36.3745 66.0781 36.45 65.9062 36.4995C65.737 36.5516 65.5299 36.5776 65.2852 36.5776C65.0273 36.5776 64.7969 36.5308 64.5938 36.437C64.3906 36.3407 64.2305 36.1948 64.1133 35.9995C63.9961 35.8042 63.9375 35.5568 63.9375 35.2573C63.9375 34.812 64.1029 34.4774 64.4336 34.2534C64.7669 34.0295 65.2695 33.9058 65.9414 33.8823L66.6914 33.855V33.6284C66.6914 33.3289 66.6211 33.1154 66.4805 32.9878C66.3424 32.8602 66.1471 32.7964 65.8945 32.7964C65.6784 32.7964 65.4688 32.8276 65.2656 32.8901C65.0625 32.9526 64.8646 33.0295 64.6719 33.1206L64.375 32.4722C64.5859 32.3602 64.8255 32.269 65.0938 32.1987C65.3646 32.1284 65.6458 32.0933 65.9375 32.0933ZM66.6875 34.4331L66.1289 34.4526C65.6706 34.4683 65.349 34.5464 65.1641 34.687C64.9792 34.8276 64.8867 35.0203 64.8867 35.2651C64.8867 35.4787 64.9505 35.6349 65.0781 35.7339C65.2057 35.8302 65.3737 35.8784 65.582 35.8784C65.8997 35.8784 66.1628 35.7886 66.3711 35.6089C66.582 35.4266 66.6875 35.1597 66.6875 34.8081V34.4331ZM69.8008 30.4214V33.3589C69.8008 33.4917 69.7956 33.6375 69.7852 33.7964C69.7747 33.9526 69.7643 34.0998 69.7539 34.2378H69.7734C69.8411 34.1466 69.9219 34.0399 70.0156 33.9175C70.112 33.7951 70.2031 33.6883 70.2891 33.5972L71.6094 32.1753H72.6641L70.9336 34.0347L72.7773 36.4995H71.6992L70.3164 34.6011L69.8008 35.0425V36.4995H68.8828V30.4214H69.8008ZM77.1562 35.8354C77.276 35.8354 77.3945 35.825 77.5117 35.8042C77.6289 35.7808 77.7357 35.7534 77.832 35.7222V36.4175C77.7305 36.4618 77.599 36.4995 77.4375 36.5308C77.276 36.562 77.1081 36.5776 76.9336 36.5776C76.6888 36.5776 76.4688 36.5373 76.2734 36.4565C76.0781 36.3732 75.9232 36.2313 75.8086 36.0308C75.694 35.8302 75.6367 35.5529 75.6367 35.1987V32.8745H75.0469V32.4644L75.6797 32.1401L75.9805 31.2144H76.5586V32.1753H77.7969V32.8745H76.5586V35.187C76.5586 35.4058 76.6133 35.5685 76.7227 35.6753C76.832 35.7821 76.9766 35.8354 77.1562 35.8354ZM82.5391 34.3276C82.5391 34.687 82.4922 35.006 82.3984 35.2847C82.3047 35.5633 82.168 35.799 81.9883 35.9917C81.8086 36.1818 81.5924 36.3276 81.3398 36.4292C81.0872 36.5282 80.8021 36.5776 80.4844 36.5776C80.1875 36.5776 79.9154 36.5282 79.668 36.4292C79.4206 36.3276 79.2057 36.1818 79.0234 35.9917C78.8438 35.799 78.7044 35.5633 78.6055 35.2847C78.5065 35.006 78.457 34.687 78.457 34.3276C78.457 33.8511 78.5391 33.4474 78.7031 33.1167C78.8698 32.7834 79.1068 32.5295 79.4141 32.355C79.7214 32.1805 80.0872 32.0933 80.5117 32.0933C80.9102 32.0933 81.2617 32.1805 81.5664 32.355C81.8711 32.5295 82.1094 32.7834 82.2812 33.1167C82.4531 33.45 82.5391 33.8537 82.5391 34.3276ZM79.4023 34.3276C79.4023 34.6427 79.4401 34.9123 79.5156 35.1362C79.5938 35.3602 79.7135 35.5321 79.875 35.6519C80.0365 35.769 80.2448 35.8276 80.5 35.8276C80.7552 35.8276 80.9635 35.769 81.125 35.6519C81.2865 35.5321 81.4049 35.3602 81.4805 35.1362C81.556 34.9123 81.5938 34.6427 81.5938 34.3276C81.5938 34.0125 81.556 33.7456 81.4805 33.5269C81.4049 33.3055 81.2865 33.1375 81.125 33.0229C80.9635 32.9058 80.7539 32.8472 80.4961 32.8472C80.1159 32.8472 79.8385 32.9748 79.6641 33.23C79.4896 33.4852 79.4023 33.8511 79.4023 34.3276ZM87.3672 32.0933C87.9141 32.0933 88.3268 32.2144 88.6055 32.4565C88.8867 32.6987 89.0273 33.0763 89.0273 33.5894V36.4995H88.375L88.1992 35.8862H88.168C88.0456 36.0425 87.9193 36.1714 87.7891 36.2729C87.6589 36.3745 87.5078 36.45 87.3359 36.4995C87.1667 36.5516 86.9596 36.5776 86.7148 36.5776C86.457 36.5776 86.2266 36.5308 86.0234 36.437C85.8203 36.3407 85.6602 36.1948 85.543 35.9995C85.4258 35.8042 85.3672 35.5568 85.3672 35.2573C85.3672 34.812 85.5326 34.4774 85.8633 34.2534C86.1966 34.0295 86.6992 33.9058 87.3711 33.8823L88.1211 33.855V33.6284C88.1211 33.3289 88.0508 33.1154 87.9102 32.9878C87.7721 32.8602 87.5768 32.7964 87.3242 32.7964C87.1081 32.7964 86.8984 32.8276 86.6953 32.8901C86.4922 32.9526 86.2943 33.0295 86.1016 33.1206L85.8047 32.4722C86.0156 32.3602 86.2552 32.269 86.5234 32.1987C86.7943 32.1284 87.0755 32.0933 87.3672 32.0933ZM88.1172 34.4331L87.5586 34.4526C87.1003 34.4683 86.7786 34.5464 86.5938 34.687C86.4089 34.8276 86.3164 35.0203 86.3164 35.2651C86.3164 35.4787 86.3802 35.6349 86.5078 35.7339C86.6354 35.8302 86.8034 35.8784 87.0117 35.8784C87.3294 35.8784 87.5924 35.7886 87.8008 35.6089C88.0117 35.4266 88.1172 35.1597 88.1172 34.8081V34.4331ZM92.5664 32.0933C93.0534 32.0933 93.4323 32.2196 93.7031 32.4722C93.9766 32.7222 94.1133 33.1245 94.1133 33.6792V36.4995H93.1953V33.8511C93.1953 33.5151 93.1263 33.2638 92.9883 33.0972C92.8503 32.9279 92.6367 32.8433 92.3477 32.8433C91.9284 32.8433 91.6367 32.9722 91.4727 33.23C91.3112 33.4878 91.2305 33.8615 91.2305 34.3511V36.4995H90.3125V32.1753H91.0273L91.1562 32.7612H91.207C91.3008 32.6102 91.4167 32.4865 91.5547 32.3901C91.6953 32.2912 91.8516 32.217 92.0234 32.1675C92.1979 32.118 92.3789 32.0933 92.5664 32.0933ZM101.109 36.4995L100.551 34.9136H98.3672L97.8086 36.4995H96.8203L98.9453 30.7651H99.9844L102.105 36.4995H101.109ZM100.309 34.1089L99.7656 32.5464C99.7448 32.4787 99.7148 32.3836 99.6758 32.2612C99.6367 32.1362 99.5977 32.0099 99.5586 31.8823C99.5195 31.7521 99.487 31.6427 99.4609 31.5542C99.4349 31.661 99.4023 31.7808 99.3633 31.9136C99.3268 32.0438 99.2904 32.1662 99.2539 32.2808C99.2201 32.3953 99.194 32.4839 99.1758 32.5464L98.6289 34.1089H100.309ZM104 38.4214C103.414 38.4214 102.965 38.3159 102.652 38.105C102.34 37.894 102.184 37.5985 102.184 37.2183C102.184 36.9526 102.267 36.7274 102.434 36.5425C102.6 36.3602 102.839 36.2339 103.148 36.1636C103.031 36.1115 102.93 36.0308 102.844 35.9214C102.76 35.8094 102.719 35.6857 102.719 35.5503C102.719 35.3888 102.764 35.2508 102.855 35.1362C102.947 35.0216 103.083 34.911 103.266 34.8042C103.039 34.7078 102.857 34.5516 102.719 34.3354C102.583 34.1167 102.516 33.8602 102.516 33.5659C102.516 33.2534 102.582 32.9878 102.715 32.769C102.848 32.5477 103.042 32.3797 103.297 32.2651C103.552 32.1479 103.861 32.0894 104.223 32.0894C104.301 32.0894 104.385 32.0946 104.477 32.105C104.57 32.1128 104.656 32.1232 104.734 32.1362C104.815 32.1466 104.876 32.1584 104.918 32.1714H106.414V32.6831L105.68 32.8198C105.75 32.9188 105.806 33.0321 105.848 33.1597C105.889 33.2847 105.91 33.4214 105.91 33.5698C105.91 34.0177 105.755 34.3706 105.445 34.6284C105.138 34.8836 104.714 35.0112 104.172 35.0112C104.042 35.006 103.915 34.9956 103.793 34.98C103.699 35.0373 103.628 35.1011 103.578 35.1714C103.529 35.2391 103.504 35.3159 103.504 35.4019C103.504 35.4722 103.529 35.5295 103.578 35.5737C103.628 35.6154 103.701 35.6466 103.797 35.6675C103.896 35.6883 104.016 35.6987 104.156 35.6987H104.902C105.376 35.6987 105.738 35.799 105.988 35.9995C106.238 36.2 106.363 36.4943 106.363 36.8823C106.363 37.3745 106.16 37.7534 105.754 38.019C105.348 38.2873 104.763 38.4214 104 38.4214ZM104.035 37.7769C104.355 37.7769 104.625 37.7456 104.844 37.6831C105.062 37.6206 105.228 37.5308 105.34 37.4136C105.452 37.299 105.508 37.1623 105.508 37.0034C105.508 36.8628 105.473 36.7547 105.402 36.6792C105.332 36.6037 105.227 36.5516 105.086 36.5229C104.945 36.4943 104.771 36.48 104.562 36.48H103.883C103.714 36.48 103.564 36.506 103.434 36.5581C103.303 36.6128 103.202 36.6909 103.129 36.7925C103.059 36.894 103.023 37.0164 103.023 37.1597C103.023 37.3576 103.111 37.5099 103.285 37.6167C103.462 37.7235 103.712 37.7769 104.035 37.7769ZM104.215 34.4097C104.483 34.4097 104.682 34.3368 104.812 34.1909C104.943 34.0425 105.008 33.8341 105.008 33.5659C105.008 33.2743 104.94 33.0555 104.805 32.9097C104.672 32.7638 104.474 32.6909 104.211 32.6909C103.953 32.6909 103.757 32.7651 103.621 32.9136C103.488 33.062 103.422 33.2821 103.422 33.5737C103.422 33.8368 103.488 34.0425 103.621 34.1909C103.757 34.3368 103.954 34.4097 104.215 34.4097ZM108.926 32.0933C109.311 32.0933 109.642 32.1727 109.918 32.3315C110.194 32.4904 110.406 32.7157 110.555 33.0073C110.703 33.299 110.777 33.6479 110.777 34.0542V34.5464H107.891C107.901 34.9657 108.013 35.2886 108.227 35.5151C108.443 35.7417 108.745 35.855 109.133 35.855C109.409 35.855 109.656 35.8289 109.875 35.7769C110.096 35.7222 110.324 35.6427 110.559 35.5386V36.2847C110.342 36.3862 110.122 36.4604 109.898 36.5073C109.674 36.5542 109.406 36.5776 109.094 36.5776C108.669 36.5776 108.296 36.4956 107.973 36.3315C107.652 36.1649 107.401 35.9175 107.219 35.5894C107.039 35.2612 106.949 34.8537 106.949 34.3667C106.949 33.8823 107.031 33.4709 107.195 33.1323C107.359 32.7938 107.59 32.536 107.887 32.3589C108.184 32.1818 108.53 32.0933 108.926 32.0933ZM108.926 32.7847C108.637 32.7847 108.402 32.8784 108.223 33.0659C108.046 33.2534 107.941 33.5282 107.91 33.8901H109.879C109.876 33.674 109.84 33.4826 109.77 33.3159C109.702 33.1493 109.598 33.019 109.457 32.9253C109.319 32.8315 109.142 32.7847 108.926 32.7847ZM114.066 32.0933C114.553 32.0933 114.932 32.2196 115.203 32.4722C115.477 32.7222 115.613 33.1245 115.613 33.6792V36.4995H114.695V33.8511C114.695 33.5151 114.626 33.2638 114.488 33.0972C114.35 32.9279 114.137 32.8433 113.848 32.8433C113.428 32.8433 113.137 32.9722 112.973 33.23C112.811 33.4878 112.73 33.8615 112.73 34.3511V36.4995H111.812V32.1753H112.527L112.656 32.7612H112.707C112.801 32.6102 112.917 32.4865 113.055 32.3901C113.195 32.2912 113.352 32.217 113.523 32.1675C113.698 32.118 113.879 32.0933 114.066 32.0933ZM118.508 35.8354C118.628 35.8354 118.746 35.825 118.863 35.8042C118.98 35.7808 119.087 35.7534 119.184 35.7222V36.4175C119.082 36.4618 118.951 36.4995 118.789 36.5308C118.628 36.562 118.46 36.5776 118.285 36.5776C118.04 36.5776 117.82 36.5373 117.625 36.4565C117.43 36.3732 117.275 36.2313 117.16 36.0308C117.046 35.8302 116.988 35.5529 116.988 35.1987V32.8745H116.398V32.4644L117.031 32.1401L117.332 31.2144H117.91V32.1753H119.148V32.8745H117.91V35.187C117.91 35.4058 117.965 35.5685 118.074 35.6753C118.184 35.7821 118.328 35.8354 118.508 35.8354Z" fill="#F8F9FA"/>
</svg>
